<svg xmlns="http://www.w3.org/2000/svg" viewBox="0 0 1200 320" role="img" aria-labelledby="title desc"><title id="title">Quick Drop</title><desc id="desc">Share it. Find it. Move on. Text, images and PDFs. Four-digit IDs. Eleven-hour expiry.</desc><defs><linearGradient id="bg" x2="1" y2="1"><stop stop-color="#101b32"/><stop offset="1" stop-color="#0b1020"/></linearGradient><linearGradient id="a" x2="1" y2="1"><stop stop-color="#3b82f6"/><stop offset="1" stop-color="#7c3aed"/></linearGradient></defs><rect width="1200" height="320" rx="24" fill="url(#bg)"/><circle cx="1090" cy="65" r="150" fill="#3b82f6" opacity=".06"/><circle cx="1000" cy="300" r="160" fill="#7c3aed" opacity=".07"/><rect x="66" y="76" width="120" height="120" rx="33" fill="url(#a)"/><path d="M126 94c-9 14-30 35-30 52a30 30 0 0 0 60 0c0-17-21-38-30-52Z" fill="#fff"/><path d="m131 114-20 31h15l-4 23 21-33h-15l3-21Z" fill="#3b6cf4"/><text x="220" y="137" fill="#f8fafc" font-family="Arial,Helvetica,sans-serif" font-size="64" font-weight="700">Quick Drop</text><text x="223" y="181" fill="#a5b4cf" font-family="Arial,Helvetica,sans-serif" font-size="25">Share it. Find it. Move on.</text><text x="68" y="259" fill="#93c5fd" font-family="Arial,Helvetica,sans-serif" font-size="20">TEXT + IMAGES + PDFs</text><text x="426" y="259" fill="#c4b5fd" font-family="Arial,Helvetica,sans-serif" font-size="20">4-DIGIT IDs</text><text x="668" y="259" fill="#6ee7b7" font-family="Arial,Helvetica,sans-serif" font-size="20">11-HOUR EXPIRY</text></svg>
